<?xml version="1.0" standalone="no"?>
<!DOCTYPE svg PUBLIC "-//W3C//DTD SVG 20010904//EN"
 "http://www.w3.org/TR/2001/REC-SVG-20010904/DTD/svg10.dtd">
<svg version="1.0" xmlns="http://www.w3.org/2000/svg"
 width="983.000000pt" height="997.000000pt" viewBox="0 0 983.000000 997.000000"
 preserveAspectRatio="xMidYMid meet">

<g transform="translate(0.000000,997.000000) scale(0.100000,-0.100000)"
fill="#000000" stroke="none">
<path d="M1235 8328 c-3 -7 -4 -285 -3 -618 l3 -605 1195 -5 c1085 -5 1203 -7
1285 -23 320 -63 540 -171 716 -354 161 -166 245 -359 269 -612 40 -424 -118
-786 -430 -993 -153 -100 -274 -149 -494 -196 l-121 -25 -872 -4 c-480 -2
-873 -7 -873 -10 0 -3 64 -84 142 -182 78 -97 224 -277 323 -401 100 -124 318
-396 486 -605 168 -209 343 -427 390 -485 153 -189 653 -811 719 -895 36 -45
164 -205 285 -355 121 -150 225 -278 231 -286 10 -13 202 -14 1395 -11 1367 3
1385 4 1494 25 148 29 258 62 406 122 258 105 443 233 597 414 215 252 346
542 407 896 45 259 45 255 45 2803 l0 2417 -1165 0 -1165 0 0 -560 0 -560 563
-2 562 -3 0 -1905 0 -1905 -22 -100 c-26 -117 -100 -274 -162 -346 -52 -59
-129 -111 -212 -141 l-64 -23 -1047 -3 c-1005 -3 -1048 -2 -1065 16 -10 10
-63 67 -119 128 -55 60 -161 174 -235 254 -328 356 -534 582 -537 588 -1 4 48
20 109 36 223 56 498 157 634 233 273 151 552 410 727 674 248 372 408 914
408 1378 0 859 -479 1636 -1230 1994 -203 98 -334 137 -595 181 -354 60 -331
59 -1708 63 -1036 3 -1268 2 -1272 -9z"/>
<path d="M1233 2708 l2 -1033 828 -3 c455 -1 827 0 827 2 0 8 -1638 2053
-1649 2061 -8 4 -10 -309 -8 -1027z"/>
</g>
</svg>
